<svg xmlns="http://www.w3.org/2000/svg" version="1.1" xmlns:xlink="http://www.w3.org/1999/xlink"
     xmlns:svgjs="http://svgjs.dev/svgjs" viewBox="0 0 2400 650" opacity="1">
  <defs>
    <linearGradient x1="50%" y1="0%" x2="50%" y2="100%" id="sssurf-grad">
      <stop stop-color="#2bd8ff" stop-opacity="1" offset="0%"></stop>
      <stop stop-color="#2bd8ff" stop-opacity="1" offset="100%"></stop>
    </linearGradient>
  </defs>
  <g fill="url(#sssurf-grad)" transform="matrix(1,0,0,1,7.6488037109375,161.5002784729004)">
    <path
      d="M-10,10C54.58333333333333,14.375,172.91666666666666,36,300,31C427.08333333333337,26,475,-12.541666666666666,600,-14C725,-15.458333333333334,775,28.583333333333332,900,24C1025,19.416666666666668,1075,-36.208333333333336,1200,-36C1325,-35.791666666666664,1375,17.291666666666664,1500,25C1625,32.708333333333336,1675,-0.6666666666666665,1800,1C1925,2.6666666666666665,1975,33.416666666666664,2100,33C2225,32.583333333333336,2285.4166666666665,-77.45833333333333,2400,-1C2514.5833333333335,75.45833333333333,3254.1666666666665,212.29166666666669,2650,400C2045.8333333333335,587.7083333333333,156.25,795.8333333333334,-500,900"
      transform="matrix(1,0,0,1,0,59)" opacity="0.05"></path>
    <path
      d="M-10,10C54.58333333333333,14.375,172.91666666666666,36,300,31C427.08333333333337,26,475,-12.541666666666666,600,-14C725,-15.458333333333334,775,28.583333333333332,900,24C1025,19.416666666666668,1075,-36.208333333333336,1200,-36C1325,-35.791666666666664,1375,17.291666666666664,1500,25C1625,32.708333333333336,1675,-0.6666666666666665,1800,1C1925,2.6666666666666665,1975,33.416666666666664,2100,33C2225,32.583333333333336,2285.4166666666665,-77.45833333333333,2400,-1C2514.5833333333335,75.45833333333333,3254.1666666666665,212.29166666666669,2650,400C2045.8333333333335,587.7083333333333,156.25,795.8333333333334,-500,900"
      transform="matrix(1,0,0,1,0,118)" opacity="0.24"></path>
    <path
      d="M-10,10C54.58333333333333,14.375,172.91666666666666,36,300,31C427.08333333333337,26,475,-12.541666666666666,600,-14C725,-15.458333333333334,775,28.583333333333332,900,24C1025,19.416666666666668,1075,-36.208333333333336,1200,-36C1325,-35.791666666666664,1375,17.291666666666664,1500,25C1625,32.708333333333336,1675,-0.6666666666666665,1800,1C1925,2.6666666666666665,1975,33.416666666666664,2100,33C2225,32.583333333333336,2285.4166666666665,-77.45833333333333,2400,-1C2514.5833333333335,75.45833333333333,3254.1666666666665,212.29166666666669,2650,400C2045.8333333333335,587.7083333333333,156.25,795.8333333333334,-500,900"
      transform="matrix(1,0,0,1,0,177)" opacity="0.43"></path>
    <path
      d="M-10,10C54.58333333333333,14.375,172.91666666666666,36,300,31C427.08333333333337,26,475,-12.541666666666666,600,-14C725,-15.458333333333334,775,28.583333333333332,900,24C1025,19.416666666666668,1075,-36.208333333333336,1200,-36C1325,-35.791666666666664,1375,17.291666666666664,1500,25C1625,32.708333333333336,1675,-0.6666666666666665,1800,1C1925,2.6666666666666665,1975,33.416666666666664,2100,33C2225,32.583333333333336,2285.4166666666665,-77.45833333333333,2400,-1C2514.5833333333335,75.45833333333333,3254.1666666666665,212.29166666666669,2650,400C2045.8333333333335,587.7083333333333,156.25,795.8333333333334,-500,900"
      transform="matrix(1,0,0,1,0,236)" opacity="0.62"></path>
    <path
      d="M-10,10C54.58333333333333,14.375,172.91666666666666,36,300,31C427.08333333333337,26,475,-12.541666666666666,600,-14C725,-15.458333333333334,775,28.583333333333332,900,24C1025,19.416666666666668,1075,-36.208333333333336,1200,-36C1325,-35.791666666666664,1375,17.291666666666664,1500,25C1625,32.708333333333336,1675,-0.6666666666666665,1800,1C1925,2.6666666666666665,1975,33.416666666666664,2100,33C2225,32.583333333333336,2285.4166666666665,-77.45833333333333,2400,-1C2514.5833333333335,75.45833333333333,3254.1666666666665,212.29166666666669,2650,400C2045.8333333333335,587.7083333333333,156.25,795.8333333333334,-500,900"
      transform="matrix(1,0,0,1,0,295)" opacity="0.81"></path>
    <path
      d="M-10,10C54.58333333333333,14.375,172.91666666666666,36,300,31C427.08333333333337,26,475,-12.541666666666666,600,-14C725,-15.458333333333334,775,28.583333333333332,900,24C1025,19.416666666666668,1075,-36.208333333333336,1200,-36C1325,-35.791666666666664,1375,17.291666666666664,1500,25C1625,32.708333333333336,1675,-0.6666666666666665,1800,1C1925,2.6666666666666665,1975,33.416666666666664,2100,33C2225,32.583333333333336,2285.4166666666665,-77.45833333333333,2400,-1C2514.5833333333335,75.45833333333333,3254.1666666666665,212.29166666666669,2650,400C2045.8333333333335,587.7083333333333,156.25,795.8333333333334,-500,900"
      transform="matrix(1,0,0,1,0,354)" opacity="1.00"></path>
  </g>
</svg>
